<svg viewBox="0 0 1080 1080" fill="none" xmlns="http://www.w3.org/2000/svg">      <defs>  <filter id="filter" x="-20%" y="-20%" width="140%" height="140%" filterUnits="objectBoundingBox" primitiveUnits="userSpaceOnUse" color-interpolation-filters="linearRGB">    <feMorphology operator="dilate" radius="20 20" in="SourceAlpha" result="morphology"/>    <feFlood flood-color="#ffffff" flood-opacity="1" result="flood"/>    <feComposite in="flood" in2="morphology" operator="in" result="composite"/>    <feMerge result="merge">          <feMergeNode in="composite" result="mergeNode"/>      <feMergeNode in="SourceGraphic" result="mergeNode1"/>      </feMerge>  </filter></defs>      <g id="notion-avatar" filter="url(#filter)">        <g id="notion-avatar-face" fill="#ffffff">      <!--?xml version="1.0" encoding="UTF-8"?-->    <!-- Generator: Sketch 63.1 (92452) - https://sketch.com -->    <title>Face/ 14</title>    <desc>Created with Sketch.</desc>    <g id="Face/-14" stroke="none" stroke-width="1" fillRule="evenodd" stroke-linecap="round" stroke-linejoin="round">        <path d="M532,379 C664.54834,379 772,486.45166 772,619 C772,642.160109 783.234546,656.244677 777.453024,678.979248 C763.583554,733.517917 758.701879,941.343666 598,909 C539.618945,897.249936 461,880 433,858 C405,836 342.170039,758.772836 320.189513,718.584987 C317.498129,718.859681 314.765451,719 312,719 C267.81722,719 232,683.18278 232,639 C232,599.134956 261.158843,566.080325 299.312086,560.00055 C325.599297,455.979213 419.809919,379 532,379 Z M295.858895,624.545187 L304.141105,655.454813" id="Path" stroke="#000000" stroke-width="24"/>    </g>    </g><g id="notion-avatar-nose">      <!--?xml version="1.0" encoding="UTF-8"?-->    <title>Nose/ 0</title>    <g id="Nose/-0" stroke="none" stroke-width="1" fill="none" fillRule="evenodd" stroke-linecap="round" stroke-linejoin="round">        <line x1="637" y1="596" x2="661.856189" y2="682.499537" id="Line" stroke="#000000" stroke-width="16" transform="translate(649.428094, 639.249768) rotate(1.032339) translate(-649.428094, -639.249768) "/>    </g>    </g><g id="notion-avatar-mouth">      <g id="Mouth/ 11"><path id="Path" fillRule="evenodd" clip-rule="evenodd" d="M529 741C529 741 595 755 627 755C659 755 689 745.528 689 745.528C689 745.528 688 814 618 814C548 814 529 741 529 741Z" stroke="black" stroke-width="16" stroke-linecap="round" stroke-linejoin="round"/></g>    </g><g id="notion-avatar-eyes">      <!--?xml version="1.0" encoding="UTF-8"?-->    <title>Eyes/ 4</title>    <g id="Eyes/-4" stroke="none" stroke-width="1" fill="none" fillRule="evenodd">        <path d="M570,516 C583.254834,516 594,526.745166 594,540 C594,553.254834 583.254834,564 570,564 C556.745166,564 546,553.254834 546,540 C546,526.745166 556.745166,516 570,516 Z M708,516 C721.254834,516 732,526.745166 732,540 C732,553.254834 721.254834,564 708,564 C694.745166,564 684,553.254834 684,540 C684,526.745166 694.745166,516 708,516 Z M562,526 C558.686292,526 556,528.686292 556,532 C556,535.313708 558.686292,538 562,538 C565.313708,538 568,535.313708 568,532 C568,528.686292 565.313708,526 562,526 Z M700,526 C696.686292,526 694,528.686292 694,532 C694,535.313708 696.686292,538 700,538 C703.313708,538 706,535.313708 706,532 C706,528.686292 703.313708,526 700,526 Z" id="Combined-Shape" fill="#000000"/>    </g>    </g><g id="notion-avatar-eyebrows">      <!--?xml version="1.0" encoding="UTF-8"?-->    <title>Eyebrows/ 0</title>    <g id="Eyebrows/-0" stroke="none" stroke-width="1" fill="none" fillRule="evenodd" stroke-linecap="round" stroke-linejoin="round">        <g id="Group" transform="translate(525.000000, 492.000000)" stroke="#000000" stroke-width="16">            <path d="M0,16 C12.8888889,5.33333333 27.8888889,0 45,0 C62.1111111,0 77.1111111,5.33333333 90,16" id="Path"/>            <path d="M138,16 C150.888889,5.33333333 165.888889,0 183,0 C200.111111,0 215.111111,5.33333333 228,16" id="Path"/>        </g>    </g>    </g><g id="notion-avatar-glasses">      <!--?xml version="1.0" encoding="UTF-8"?-->    <title>Glasses/ 6</title>    <g id="Glasses/-6" stroke="none" stroke-width="1" fill="none" fillRule="evenodd" stroke-linecap="round" stroke-linejoin="round">        <g id="Group" transform="translate(289.000000, 489.000000)" fill="#000000" stroke="#000000" stroke-width="4">            <path d="M507.197382,9.82478969 C513.43226,17.7007378 515.213654,62.5936419 486.711355,88.5842707 C469.404358,104.366146 429.38069,108.487745 402.985851,98.8230032 C386.082673,92.6337314 377.827731,74.7226245 375.444668,70.5905602 L375.374248,70.46959 C367.818365,57.6210186 359.693569,48.7969114 350.999861,43.9972684 C342.444422,48.7207266 334.439709,57.3419022 326.985986,69.8607952 L326.625752,70.46959 C324.338153,74.359588 316.088066,92.5712135 299.014149,98.8230032 C272.61931,108.487745 232.595642,104.366146 215.288645,88.5842707 C186.786346,62.5936419 188.56774,17.7007378 194.802618,9.82478969 C201.037496,1.94884159 243.790945,-3.56432208 278.528122,2.7364364 C313.265299,9.03719488 328.491531,25.281971 335.53272,27.9394703 C339.929408,29.5988766 344.89638,30.3949699 350.433636,30.3277503 L350.434736,30.3022547 L351,30.3179093 L351.565264,30.3022547 L351.566163,30.3277478 C357.1035,30.3949891 362.070539,29.5988966 366.46728,27.9394703 C373.508469,25.281971 388.734701,9.03719488 423.471878,2.7364364 C458.209055,-3.56432208 500.962504,1.94884159 507.197382,9.82478969 Z M209.053767,15.3379534 C189.458437,28.7270651 207.272374,75.1951589 225.977008,88.5842707 C244.681642,101.973382 289.216484,98.8230032 299.904846,91.7346499 C310.593209,84.6462966 334.642023,53.930099 326.625752,34.2402288 C318.60948,14.5503585 237.556067,1.16124678 209.053767,15.3379534 Z M492.946233,15.3379534 C464.443933,1.16124678 383.39052,14.5503585 375.374248,34.2402288 C367.357977,53.930099 391.406791,84.6462966 402.095154,91.7346499 C412.783516,98.8230032 457.318358,101.973382 476.022992,88.5842707 C494.727626,75.1951589 512.541563,28.7270651 492.946233,15.3379534 Z" id="Combined-Shape"/>            <polygon id="Path" points="199 20 4 52 0 61 199 41"/>        </g>    </g>    </g><g id="notion-avatar-hair">      <!--?xml version="1.0" encoding="UTF-8"?-->    <title>Hairstyle/ 8</title>    <g id="Hairstyle/-8" stroke="none" stroke-width="1" fill="none" fillRule="evenodd" stroke-linecap="round" stroke-linejoin="round">        <path d="M589.5,149 C631.429764,149 667.646435,173.46066 684.658775,208.890741 C721.09813,214.498985 749,245.991077 749,284 C749,286.479516 748.88126,288.931299 748.649157,291.349973 C776.884031,307.885612 799.44561,330.956745 794,360 C786,402.666667 760.666667,438 718,466 L715.0861,463.567 C683.962033,437.635667 661.933333,421.113333 649,414 C615.112376,395.361807 560.361457,389 532,389 C494.328727,389 459.328727,395.666667 427,409 C427.442658,419.124205 429.109325,429.457538 432,440 C434.890675,450.542462 438.890675,460.875795 444,471 C418.42303,487.163731 403.86212,499.704664 400.317272,508.622798 C395.053173,521.866228 390.816933,592.760589 386.449154,651.362106 L386.17725,655 L366.146153,655 L328.203914,564.824988 L287.169322,564.824988 C281.896276,545.26754 277.997962,527.821458 275.474381,512.486743 C230.854476,504.457464 197,465.4323 197,418.5 C197,388.97181 210.401273,362.573655 231.453484,345.055871 C227.349851,337.983222 225,329.766029 225,321 C225,294.490332 246.490332,273 273,273 L273.516848,273.002725 L273.516848,273.002725 C278.783823,219.66548 323.776164,178 378.5,178 C395.981022,178 412.469019,182.251645 426.986338,189.77728 C440.350453,178.084255 457.847918,171 477,171 C490.487831,171 503.155028,174.513552 514.136247,180.675313 C533.28305,161.128247 559.975173,149 589.5,149 Z" id="Path" stroke="#000000" stroke-width="12" fill="#000000"/>    </g>    </g><g id="notion-avatar-accessories">      <!--?xml version="1.0" encoding="UTF-8"?-->    <title>Accessories/ 0</title>    <g id="Accessories/-0" stroke="none" stroke-width="1" fill="none" fillRule="evenodd"/>    </g><g id="notion-avatar-details">      <!--?xml version="1.0" encoding="UTF-8"?-->    <title>Details/ 0</title>    <g id="Details/-0" stroke="none" stroke-width="1" fill="none" fillRule="evenodd"/>    </g><g id="notion-avatar-beard">      <!--?xml version="1.0" encoding="UTF-8"?-->    <title>Beard/ 0</title>    <g id="Beard/-0" stroke="none" stroke-width="1" fill="none" fillRule="evenodd"/>    </g>      </g>      </svg>